<svg width="75" height="75" viewBox="0 0 75 75" fill="none" xmlns="http://www.w3.org/2000/svg">
<path d="M62.7134 4H11.4126C7.32584 4 4 7.34314 4 11.4511V63.0189C4 67.1269 7.32584 70.4701 11.4126 70.4701H62.7134C66.8002 70.4701 70.126 67.1269 70.126 63.0189V11.453C70.126 7.34502 66.8002 4.00188 62.7134 4.00188V4ZM67.3722 63.0208C67.3722 65.6029 65.2821 67.702 62.7153 67.702H11.4144C8.84575 67.702 6.75751 65.601 6.75751 63.0208V11.453C6.75751 8.87095 8.84762 6.77186 11.4144 6.77186H62.7153C65.284 6.77186 67.3722 8.87283 67.3722 11.453V63.0208Z" fill="white"/>
<path d="M26.191 23.3887L17.7764 50.7201H21.2723L23.7924 42.2448H32.4089L35.0094 50.7201H38.5858L30.2123 23.3887H26.1891H26.191ZM24.443 39.5688L26.7593 31.9448C27.2473 30.2422 27.6529 28.3761 28.0194 26.6322H28.1427C28.5073 28.3348 28.9148 30.1614 29.4439 31.9861L31.8013 39.5688H24.4449H24.443Z" fill="white"/>
<path d="M49.0341 30.6875C43.8313 30.6875 40.5391 35.1488 40.5391 41.1905C40.5391 47.2322 43.8313 51.0846 49.4809 51.0846C52.1225 51.0846 54.1565 50.5171 55.3343 49.9496L54.7659 47.4765C53.6274 48.0046 52.1655 48.4105 49.9707 48.4105C46.8 48.4105 43.9154 46.6252 43.8743 41.4348H56.2298C56.312 41.0289 56.3513 40.5027 56.3513 39.7322C56.3513 35.8798 54.7267 30.6894 49.0359 30.6894L49.0341 30.6875ZM43.9135 38.9617C44.1566 36.406 45.5381 33.2038 48.7088 33.2038C51.8795 33.2038 53.0984 36.2049 53.0572 38.9617H43.9135Z" fill="white"/>
</svg>
