<svg width="75" height="75" viewBox="0 0 75 75" fill="none" xmlns="http://www.w3.org/2000/svg">
<path d="M62.4142 5H12.2493C8.25195 5 5 8.26887 5 12.287V62.713C5 66.7311 8.25195 70 12.2493 70H62.4142C66.4116 70 69.6636 66.7311 69.6636 62.713V12.287C69.6636 8.26887 66.4116 5 62.4142 5ZM66.9684 62.713C66.9684 65.238 64.9262 67.2908 62.4142 67.2908H12.2493C9.73736 67.2908 7.69515 65.238 7.69515 62.713V12.287C7.69515 9.76201 9.73736 7.70917 12.2493 7.70917H62.4142C64.9262 7.70917 66.9684 9.76201 66.9684 12.287V62.713Z" fill="white"/>
<path d="M39.4893 16.375V46.334H31.3018C29.1303 46.334 27.0472 45.472 25.5117 43.9365C23.9762 42.401 23.1133 40.318 23.1133 38.1465C23.1133 35.9751 23.9764 33.8929 25.5117 32.3574C25.8866 31.9826 26.2941 31.6474 26.7275 31.3555C26.2941 31.0635 25.8857 30.7294 25.5107 30.3545C23.9752 28.8189 23.1124 26.7361 23.1123 24.5645C23.1123 22.3926 23.975 20.3091 25.5107 18.7734C27.0464 17.2377 29.1299 16.375 31.3018 16.375H39.4893ZM25.9082 38.1465C25.9082 39.577 26.4758 40.9494 27.4873 41.9609C28.4988 42.9724 29.8713 43.54 31.3018 43.54H36.6953V32.7529H31.3018C29.8713 32.7529 28.4988 33.3215 27.4873 34.333C26.476 35.3444 25.9082 36.7162 25.9082 38.1465ZM25.9072 24.5645C25.9073 25.9951 26.4757 27.3673 27.4873 28.3789C28.499 29.3904 29.8711 29.959 31.3018 29.959H36.6953V19.1699H31.3018C29.871 19.1699 28.499 19.7383 27.4873 20.75C26.4756 21.7617 25.9072 23.1337 25.9072 24.5645Z" fill="white"/>
<path d="M36.6951 46.3359H31.3016C30.2334 46.3359 29.1902 46.6514 28.3045 47.2432C27.4178 47.8357 26.7264 48.6778 26.3182 49.6631C25.9099 50.6485 25.8035 51.7331 26.0115 52.7793C26.2195 53.8255 26.733 54.7867 27.4871 55.541C28.2412 56.2953 29.2018 56.8093 30.2479 57.0176C31.294 57.2259 32.3785 57.1189 33.3641 56.7109C34.3496 56.303 35.1921 55.6122 35.785 54.7256C36.3778 53.8389 36.6947 52.7961 36.6951 51.7295V46.3359ZM50.2781 38.1465C50.2781 36.7158 49.7097 35.3437 48.698 34.332C47.6864 33.3203 46.3143 32.752 44.8836 32.752C43.4529 32.752 42.0808 33.3204 41.0691 34.332C40.0576 35.3437 39.4891 36.7158 39.4891 38.1465C39.4891 39.5771 40.0575 40.9493 41.0691 41.9609C42.0808 42.9725 43.4529 43.541 44.8836 43.541C46.3143 43.541 47.6864 42.9725 48.698 41.9609C49.7097 40.9493 50.2781 39.5771 50.2781 38.1465ZM53.0721 38.1465C53.072 40.3182 52.2093 42.4009 50.6736 43.9365C49.138 45.4721 47.0553 46.335 44.8836 46.335C42.8924 46.3349 40.9776 45.6079 39.4891 44.3037V51.7305C39.4885 53.3496 39.0081 54.9323 38.1082 56.2783C37.2082 57.6245 35.9286 58.6736 34.4324 59.293C32.9364 59.9122 31.2899 60.074 29.702 59.7578C28.114 59.4416 26.6553 58.6617 25.5105 57.5166C24.3657 56.3714 23.5861 54.9124 23.2703 53.3242C22.9546 51.736 23.1173 50.0897 23.7371 48.5938C24.3569 47.0978 25.4064 45.8195 26.7527 44.9199C28.1003 44.0196 29.6837 43.542 31.3016 43.542H38.7264C37.4218 42.0534 36.6952 40.138 36.6951 38.1465C36.6951 35.9747 37.5579 33.8912 39.0936 32.3555C40.6292 30.82 42.712 29.9571 44.8836 29.957C47.0552 29.957 49.138 30.82 50.6736 32.3555C52.2093 33.8912 53.0721 35.9747 53.0721 38.1465Z" fill="white"/>
<path d="M50.2773 24.5645C50.2773 23.1338 49.7088 21.7617 48.6973 20.75C47.6856 19.7384 46.3134 19.17 44.8828 19.1699H39.4893V29.959H44.8828C46.3134 29.9589 47.6856 29.3905 48.6973 28.3789C49.7089 27.3673 50.2773 25.9951 50.2773 24.5645ZM53.0713 24.5645C53.0712 26.7362 52.2085 28.8189 50.6729 30.3545C49.1372 31.8901 47.0545 32.7528 44.8828 32.7529H36.6943V16.375H44.8828C47.0544 16.3751 49.1372 17.2379 50.6729 18.7734C52.2086 20.3091 53.0713 22.3926 53.0713 24.5645Z" fill="white"/>
</svg>
