<svg width="129" height="120" viewBox="0 0 129 120" fill="none" xmlns="http://www.w3.org/2000/svg">
<g clip-path="url(#clip0_9209_199)">
<path d="M91.1664 10.1077V65.3399C91.1664 65.3399 91.7393 75.9494 86.7864 78.1342C80.3181 81.0041 72.5007 74.2644 72.5007 74.2644L51.4879 55.6562C51.4879 55.6562 42.8389 47.6759 42.8389 58.1188V76.0975L75.6794 108.278C75.6794 108.278 90.6119 125.868 110.812 117.924C110.812 117.924 128.572 110.388 128.572 95.039V38.5848C128.572 38.5848 128.812 29.3454 123.73 25.0128L100.13 5.79352C100.13 5.79352 91.1664 -1.09431 91.1664 10.0892V10.1077Z" fill="#F2B72F"/>
<path d="M37.4236 109.891V54.6405C37.4236 54.6405 36.8507 44.031 41.8036 41.8462C48.2719 38.9578 56.0893 45.716 56.0893 45.716L77.102 64.3242C77.102 64.3242 85.7511 72.3045 85.7511 61.8616V43.8829L52.8921 11.7027C52.8921 11.7027 37.9596 -5.88718 17.76 2.05604C17.76 2.05604 -0.000160536 9.59192 -0.000160536 24.9414V81.3957C-0.000160536 81.3957 -0.240412 90.635 4.84183 94.9676L28.4419 114.187C28.4419 114.187 37.4051 121.075 37.4051 109.891H37.4236Z" fill="white"/>
</g>
<defs>
<clipPath id="clip0_9209_199">
<rect width="128.571" height="120" fill="white"/>
</clipPath>
</defs>
</svg>
