<svg width="75" height="75" viewBox="0 0 75 75" fill="none" xmlns="http://www.w3.org/2000/svg">
<path d="M63.4875 4H11.779C7.65865 4 4.30664 7.36945 4.30664 11.5113V63.4887C4.30664 67.6306 7.65865 71 11.779 71H63.4875C67.6078 71 70.9599 67.6306 70.9599 63.4887V11.5113C70.9599 7.36945 67.6078 4 63.4875 4ZM68.1818 63.4887C68.1818 66.0915 66.0767 68.2075 63.4875 68.2075H11.779C9.18977 68.2075 7.08471 66.0915 7.08471 63.4887V11.5113C7.08471 8.90854 9.18977 6.79253 11.779 6.79253H63.4875C66.0767 6.79253 68.1818 8.90854 68.1818 11.5113V63.4887Z" fill="white"/>
<path d="M32.4197 23.543L23.7471 51.4589H27.3496L29.9482 42.8031H38.8302L41.511 51.4589H45.1977L36.5681 23.543H32.4197ZM30.6175 40.067L33.0048 32.2795C33.5077 30.5393 33.9265 28.6357 34.3041 26.8542H34.4313C34.807 28.5943 35.2258 30.4585 35.7717 32.3208L38.2002 40.0651H30.6175V40.067Z" fill="white"/>
<path d="M50.7278 23.666C49.4715 23.666 48.5498 24.6188 48.5498 25.9023C48.5498 27.1858 49.4303 28.0972 50.6866 28.0972H50.7278C52.0682 28.0972 52.9076 27.1445 52.9076 25.9023C52.9076 24.6169 52.0271 23.666 50.7278 23.666Z" fill="white"/>
<path d="M52.5282 31.4102H49.0098V51.4577H52.5282V31.4102Z" fill="white"/>
</svg>
