<svg width="75" height="75" viewBox="0 0 75 75" fill="none" xmlns="http://www.w3.org/2000/svg">
<g clip-path="url(#clip0_9138_2200)">
<path d="M63.4887 4H11.5113C7.36945 4 4 7.36945 4 11.5113V63.4887C4 67.6306 7.36945 71 11.5113 71H63.4887C67.6306 71 71 67.6306 71 63.4887V11.5113C71 7.36945 67.6306 4 63.4887 4ZM68.2075 63.4887C68.2075 66.0915 66.0915 68.2075 63.4887 68.2075H11.5113C8.90854 68.2075 6.79253 66.0915 6.79253 63.4887V11.5113C6.79253 8.90854 8.90854 6.79253 11.5113 6.79253H63.4887C66.0915 6.79253 68.2075 8.90854 68.2075 11.5113V63.4887Z" fill="white"/>
<path d="M28.4131 23.416H24.9365V51.0463H28.4131V23.416Z" fill="white"/>
<path d="M49.8965 22.1465H46.4199V33.5853H46.3372C45.469 31.9861 43.6067 30.7966 40.9984 30.7966C36.6517 30.7966 32.8857 34.6095 32.8857 41.3334C32.8857 47.5235 36.2383 51.4586 40.6676 51.4586C43.5654 51.4586 45.7171 49.8594 46.6699 47.8919H46.7939L47.0006 51.049H50.0637C49.981 49.7373 49.8984 47.687 49.8984 46.0465V22.1465H49.8965ZM46.4199 43.0961C46.4199 43.6692 46.3786 44.1616 46.2545 44.5713C45.5517 47.3187 43.6048 48.6304 41.6185 48.6304C38.1401 48.6304 36.4018 45.2685 36.4018 41.2093C36.4018 37.1502 38.2641 33.5834 41.6993 33.5834C44.101 33.5834 45.8392 35.4288 46.294 37.6426C46.3767 38.0936 46.418 38.6667 46.418 39.1178V43.0942L46.4199 43.0961Z" fill="white"/>
</g>
<defs>
<clipPath id="clip0_9138_2200">
<rect width="67" height="67" fill="white" transform="translate(4 4)"/>
</clipPath>
</defs>
</svg>
