<svg width="75" height="75" viewBox="0 0 75 75" fill="none" xmlns="http://www.w3.org/2000/svg">
<path d="M63.8342 4H12.1257C8.00533 4 4.65332 7.36945 4.65332 11.5113V63.4887C4.65332 67.6306 8.00533 71 12.1257 71H63.8342C67.9545 71 71.3065 67.6306 71.3065 63.4887V11.5113C71.3065 7.36945 67.9545 4 63.8342 4ZM68.5285 63.4887C68.5285 66.0915 66.4234 68.2075 63.8342 68.2075H12.1257C9.53645 68.2075 7.43139 66.0915 7.43139 63.4887V11.5113C7.43139 8.90854 9.53645 6.79253 12.1257 6.79253H63.8342C66.4234 6.79253 68.5285 8.90854 68.5285 11.5113V63.4887Z" fill="white"/>
<path d="M29.024 23.543C26.3861 23.543 24.3371 23.7985 22.7051 24.0955V52.4718H26.2197V40.8826C26.932 41.0536 27.7677 41.0968 28.6893 41.0968C31.9535 41.0968 34.9241 40.0313 36.7244 37.9021C38.063 36.4532 38.7753 34.4519 38.7753 31.8529C38.7753 29.2539 37.8966 27.2093 36.4328 25.845C34.8007 24.3116 32.29 23.5448 29.0259 23.5448L29.024 23.543ZM28.7323 38.199C27.7266 38.199 26.8909 38.1558 26.2197 37.9435V26.6531C26.8049 26.5253 27.8107 26.3975 29.1492 26.3975C33.0415 26.3975 35.2588 28.4853 35.2588 32.0653C35.2588 36.0285 32.748 38.199 28.7305 38.199H28.7323Z" fill="white"/>
<path d="M48.2739 40.4554C45.8473 39.3053 44.8415 38.5386 44.8415 36.9206C44.8415 35.4285 45.9296 34.1506 47.9804 34.1506C49.6125 34.1506 50.9099 34.7463 51.7044 35.2593L52.5831 32.6171C51.5362 31.9782 49.9471 31.4238 48.0215 31.4238C44.047 31.4238 41.4521 34.0228 41.4521 37.3471C41.4521 39.8183 43.0842 41.7784 46.4325 43.2272C48.9432 44.3773 49.8649 45.3583 49.8649 47.0627C49.8649 48.8518 48.6516 50.1296 46.2231 50.1296C44.5499 50.1296 42.7907 49.4061 41.8298 48.7672L40.9492 51.4939C42.2055 52.3039 44.1311 52.8564 46.1389 52.8564C50.4893 52.8564 53.2524 50.4717 53.2524 46.6794C53.2524 43.6538 51.4109 41.8216 48.272 40.4591L48.2739 40.4554Z" fill="white"/>
</svg>
