<svg width="75" height="75" viewBox="0 0 75 75" fill="none" xmlns="http://www.w3.org/2000/svg">
<path d="M62.7135 4H11.4126C7.32583 4 4 7.34314 4 11.4511V63.0189C4 67.1269 7.32583 70.4701 11.4126 70.4701H62.7135C66.8002 70.4701 70.126 67.1269 70.126 63.0189V11.453C70.126 7.34502 66.8002 4.00188 62.7135 4.00188V4ZM67.3723 63.0208C67.3723 65.6029 65.2822 67.702 62.7153 67.702H11.4144C8.84573 67.702 6.75751 65.601 6.75751 63.0208V11.453C6.75751 8.87095 8.8476 6.77186 11.4144 6.77186H62.7153C65.284 6.77186 67.3723 8.87283 67.3723 11.453V63.0208Z" fill="white"/>
<path d="M29.5472 23.3887C26.9355 23.3887 24.9052 23.633 23.2881 23.9186V51.0847H26.7691V39.9897C27.4758 40.1532 28.304 40.1946 29.2144 40.1946C32.4468 40.1946 35.3894 39.1742 37.1729 37.1352C38.4983 35.7483 39.2031 33.8315 39.2031 31.3434C39.2031 28.8553 38.3319 26.8972 36.8831 25.593C35.2678 24.1234 32.7795 23.3906 29.5472 23.3906V23.3887ZM29.2555 37.4208C28.2591 37.4208 27.4309 37.3795 26.7672 37.1765V26.3672C27.3468 26.2451 28.3432 26.1229 29.6687 26.1229C33.5236 26.1229 35.7202 28.1206 35.7202 31.5483C35.7202 35.3424 33.2338 37.4208 29.2555 37.4208Z" fill="white"/>
<path d="M46.1662 35.0134H46.0428L45.8764 31.3414H42.8086C42.8927 33.0534 42.975 35.0547 42.975 37.1745V51.0845H46.4579V40.4368C46.4579 39.8261 46.499 39.2135 46.5812 38.7249C47.0374 36.156 48.7779 34.2786 51.1802 34.2786C51.5952 34.2786 51.9261 34.2786 52.2159 34.3594V31.0144C51.9261 30.9749 51.6775 30.9336 51.3055 30.9336C49.0677 30.9336 46.9944 32.5666 46.1643 35.0134H46.1662Z" fill="white"/>
</svg>
