<svg width="75" height="75" viewBox="0 0 75 75" fill="none" xmlns="http://www.w3.org/2000/svg">
<path d="M63.1808 4H11.4724C7.35201 4 4 7.36945 4 11.5113V63.4887C4 67.6306 7.35201 71 11.4724 71H63.1808C67.3012 71 70.6532 67.6306 70.6532 63.4887V11.5113C70.6532 7.36945 67.3012 4 63.1808 4ZM67.8751 63.4887C67.8751 66.0915 65.7701 68.2075 63.1808 68.2075H11.4724C8.88313 68.2075 6.77807 66.0915 6.77807 63.4887V11.5113C6.77807 8.90854 8.88313 6.79253 11.4724 6.79253H63.1808C65.7701 6.79253 67.8751 8.90854 67.8751 11.5113V63.4887Z" fill="white"/>
<path d="M43.2013 22.4342C43.2013 22.4342 42.7736 22.5609 42.0465 22.7931C41.9182 22.4131 41.7472 21.9276 41.4906 21.4631C40.678 19.922 39.4805 19.1198 38.0264 19.0987C37.9195 19.0987 37.834 19.0987 37.727 19.1198C37.6843 19.0776 37.6415 19.0143 37.5987 18.9721C36.9786 18.2965 36.166 17.9799 35.2038 18.001C33.3434 18.0643 31.483 19.3943 29.9648 21.7587C28.8956 23.4264 28.1044 25.5163 27.8692 27.1208C25.7308 27.7752 24.234 28.2396 24.1912 28.2396C23.1006 28.5774 23.0792 28.6196 22.9296 29.6118C22.8226 30.3718 20 51.989 20 51.989L43.4792 56V22.392C43.3723 22.392 43.2654 22.4131 43.2013 22.4342ZM37.7698 24.1019C36.5296 24.4819 35.161 24.9041 33.8138 25.3052C34.1987 23.8486 34.9258 22.4131 35.8239 21.4631C36.166 21.1042 36.6151 20.7243 37.1711 20.492C37.6843 21.5687 37.7912 23.0675 37.7698 24.1019ZM35.2252 19.2254C35.6528 19.2254 36.0377 19.3098 36.3585 19.5209C35.8453 19.7743 35.3748 20.1543 34.9044 20.6398C33.7283 21.8853 32.8088 23.8486 32.4453 25.7275C31.3119 26.0652 30.2214 26.403 29.195 26.7197C29.8365 23.7431 32.3597 19.3098 35.2252 19.2254ZM31.5899 36.0927C31.7182 38.056 36.9786 38.4993 37.278 43.1226C37.5132 46.7536 35.3321 49.2446 32.1673 49.4346C28.4038 49.6668 26.3082 47.4713 26.3082 47.4713L27.0994 44.1148C27.0994 44.1148 29.195 45.6769 30.8629 45.5714C31.9535 45.508 32.3384 44.6214 32.317 44.0092C32.1459 41.4337 27.8692 41.5815 27.6126 37.3594C27.3774 33.7917 29.7509 30.2029 34.9686 29.8651C37 29.7385 38.0264 30.2451 38.0264 30.2451L36.8289 34.6572C36.8289 34.6572 35.5031 34.0661 33.9208 34.1506C31.6113 34.2983 31.5686 35.7339 31.5899 36.0927ZM39.0101 23.722C38.9887 22.7931 38.8818 21.4842 38.4327 20.3654C39.844 20.6398 40.5497 22.202 40.8491 23.152C40.3145 23.3209 39.6943 23.5108 39.0101 23.722ZM44.2491 55.9156L54 53.5301C54 53.5301 49.8088 25.5375 49.7874 25.3475C49.766 25.1575 49.595 25.0519 49.4453 25.0308C49.2956 25.0097 46.5585 24.9675 46.5585 24.9675C46.5585 24.9675 44.8906 23.3631 44.2491 22.7509V55.9156Z" fill="white"/>
</svg>
