<svg width="75" height="75" viewBox="0 0 75 75" fill="none" xmlns="http://www.w3.org/2000/svg">
<path d="M63.1808 4H11.4724C7.35201 4 4 7.36945 4 11.5113V63.4887C4 67.6306 7.35201 71 11.4724 71H63.1808C67.3012 71 70.6532 67.6306 70.6532 63.4887V11.5113C70.6532 7.36945 67.3012 4 63.1808 4ZM67.8751 63.4887C67.8751 66.0915 65.7701 68.2075 63.1808 68.2075H11.4724C8.88313 68.2075 6.77807 66.0915 6.77807 63.4887V11.5113C6.77807 8.90854 8.88313 6.79253 11.4724 6.79253H63.1808C65.7701 6.79253 67.8751 8.90854 67.8751 11.5113V63.4887Z" fill="white"/>
<path d="M38 19C27.531 19 19 27.531 19 38C19 48.469 27.531 57 38 57C48.469 57 57 48.469 57 38C57 27.531 48.469 19 38 19ZM20.919 38C20.919 35.53 21.451 33.174 22.401 31.046L30.552 53.371C24.852 50.597 20.919 44.764 20.919 38ZM38 55.081C36.328 55.081 34.713 54.834 33.174 54.378L38.304 39.482L43.548 53.865C43.586 53.941 43.624 54.036 43.662 54.093C41.895 54.739 39.995 55.081 38 55.081ZM40.356 29.982C41.382 29.925 42.313 29.811 42.313 29.811C43.225 29.697 43.13 28.348 42.199 28.405C42.199 28.405 39.425 28.614 37.639 28.614C35.967 28.614 33.136 28.405 33.136 28.405C32.224 28.367 32.11 29.773 33.041 29.83C33.041 29.83 33.915 29.944 34.827 30.001L37.487 37.297L33.744 48.507L27.531 29.982C28.557 29.944 29.488 29.83 29.488 29.83C30.4 29.716 30.305 28.367 29.374 28.424C29.374 28.424 26.6 28.633 24.814 28.633C24.491 28.633 24.111 28.633 23.712 28.614C26.79 23.978 32.034 20.919 38 20.919C42.446 20.919 46.493 22.61 49.533 25.403C49.457 25.403 49.381 25.384 49.305 25.384C47.633 25.384 46.436 26.847 46.436 28.424C46.436 29.83 47.253 31.027 48.108 32.433C48.754 33.573 49.514 35.036 49.514 37.145C49.514 38.608 48.944 40.299 48.222 42.674L46.512 48.374L40.356 29.982ZM52.991 29.811C55.1241 33.7169 55.6485 38.3011 54.4527 42.5879C53.2568 46.8746 50.435 50.5254 46.588 52.763L51.813 37.677C52.782 35.245 53.105 33.288 53.105 31.559C53.105 30.932 53.067 30.343 52.991 29.811Z" fill="white"/>
</svg>
